<svg width="51" height="51" viewBox="0 0 51 51" fill="none" xmlns="http://www.w3.org/2000/svg">
<path fill-rule="evenodd" clip-rule="evenodd" d="M36.8124 32.2475L50.2624 45.6975C50.7352 46.1705 51.0006 46.8121 51.0004 47.4809C51.0001 48.1497 50.7342 48.791 50.2612 49.2637C49.7881 49.7365 49.1466 50.0019 48.4778 50.0017C47.809 50.0015 47.1677 49.7356 46.6949 49.2625L33.2449 35.8125C29.2242 38.9267 24.1681 40.3922 19.1052 39.9109C14.0423 39.4295 9.35299 37.0375 5.99111 33.2215C2.62924 29.4055 0.847384 24.452 1.00804 19.3688C1.16869 14.2857 3.25978 9.45462 6.85592 5.85848C10.4521 2.26235 15.2831 0.171255 20.3663 0.0106012C25.4494 -0.150052 30.4029 1.6318 34.2189 4.99368C38.035 8.35555 40.427 13.0449 40.9083 18.1078C41.3896 23.1707 39.9241 28.2268 36.8099 32.2475H36.8124ZM20.9999 35C24.9782 35 28.7935 33.4196 31.6065 30.6066C34.4196 27.7935 35.9999 23.9782 35.9999 20C35.9999 16.0217 34.4196 12.2064 31.6065 9.39337C28.7935 6.58032 24.9782 4.99997 20.9999 4.99997C17.0217 4.99997 13.2064 6.58032 10.3933 9.39337C7.58026 12.2064 5.99991 16.0217 5.99991 20C5.99991 23.9782 7.58026 27.7935 10.3933 30.6066C13.2064 33.4196 17.0217 35 20.9999 35Z" fill="white"/>
<path d="M23.5 22.5H28.5C29.163 22.5 29.7989 22.2366 30.2678 21.7678C30.7366 21.2989 31 20.663 31 20C31 19.337 30.7366 18.7011 30.2678 18.2322C29.7989 17.7634 29.163 17.5 28.5 17.5H23.5V12.5C23.5 11.837 23.2366 11.2011 22.7678 10.7322C22.2989 10.2634 21.663 10 21 10C20.337 10 19.7011 10.2634 19.2322 10.7322C18.7634 11.2011 18.5 11.837 18.5 12.5V17.5H13.5C12.837 17.5 12.2011 17.7634 11.7322 18.2322C11.2634 18.7011 11 19.337 11 20C11 20.663 11.2634 21.2989 11.7322 21.7678C12.2011 22.2366 12.837 22.5 13.5 22.5H18.5V27.5C18.5 28.163 18.7634 28.7989 19.2322 29.2678C19.7011 29.7366 20.337 30 21 30C21.663 30 22.2989 29.7366 22.7678 29.2678C23.2366 28.7989 23.5 28.163 23.5 27.5V22.5Z" fill="#D5621D"/>
</svg>
